HIERARCHY
ROOT Hips
{
	OFFSET 0.00000 0.00000 0.00000
	CHANNELS 6 Xposition Yposition Zposition Zrotation Yrotation Xrotation 
	JOINT LHipJoint
	{
		OFFSET 0 0 0
		CHANNELS 3 Zrotation Yrotation Xrotation
		JOINT LeftHip
		{
			OFFSET 1.77779 -1.88989 0.48267
			CHANNELS 3 Zrotation Yrotation Xrotation
			JOINT LeftKnee
			{
				OFFSET 2.53442 -6.96327 0.00000
				CHANNELS 3 Zrotation Yrotation Xrotation
				JOINT LeftAnkle
				{
					OFFSET 2.71068 -7.44755 0.00000
					CHANNELS 3 Zrotation Yrotation Xrotation
					JOINT LeftToe
					{
						OFFSET 0.17992 -0.49431 2.22524
						CHANNELS 3 Zrotation Yrotation Xrotation
						End Site
						{
							OFFSET 0.00000 -0.00000 1.14687
						}
					}
				}
			}
		}
	}
	JOINT RHipJoint
	{
		OFFSET 0 0 0
		CHANNELS 3 Zrotation Yrotation Xrotation
		JOINT RightHip
		{
			OFFSET -1.58469 -1.88989 0.48267
			CHANNELS 3 Zrotation Yrotation Xrotation
			JOINT RightKnee
			{
				OFFSET -2.60386 -7.15404 0.00000
				CHANNELS 3 Zrotation Yrotation Xrotation
				JOINT RightAnkle
				{
					OFFSET -2.73334 -7.50979 0.00000
					CHANNELS 3 Zrotation Yrotation Xrotation
					JOINT RightToe
					{
						OFFSET -0.25618 -0.70384 2.21822
						CHANNELS 3 Zrotation Yrotation Xrotation
						End Site
						{
							OFFSET -0.00000 -0.00000 1.16381
						}
					}
				}
			}
		}
	}
	JOINT lowerback
	{
		OFFSET 0 0 0
		CHANNELS 3 Zrotation Yrotation Xrotation
		JOINT Chest
		{
			OFFSET 0.03410 2.01612 -0.22230
			CHANNELS 3 Zrotation Yrotation Xrotation
			JOINT Chest2
			{
				OFFSET 0.03465 2.03012 0.00937
				CHANNELS 3 Zrotation Yrotation Xrotation
				JOINT lowerneck
				{
					OFFSET 0 0 0
					CHANNELS 3 Zrotation Yrotation Xrotation
					JOINT Neck
					{
						OFFSET -0.00219 1.70459 0.20857
						CHANNELS 3 Zrotation Yrotation Xrotation
						JOINT Head
						{
							OFFSET 0.02518 1.72339 -0.22179
							CHANNELS 3 Zrotation Yrotation Xrotation
							End Site
							{
								OFFSET 0.00282 1.74122 -0.09823
							}
						}
					}
				}
				JOINT LeftCollar
				{
					OFFSET 0 0 0
					CHANNELS 3 Zrotation Yrotation Xrotation
					JOINT LeftShoulder
					{
						OFFSET 3.36358 1.00547 -0.37661
CHANNELS 3 Zrotation Xrotation Yrotation
						JOINT LeftElbow
						{
OFFSET 0 -5.065070 0.000000
CHANNELS 3 Zrotation Xrotation Yrotation
							JOINT LeftWrist
							{
OFFSET 0 -3.601960 0.000000
CHANNELS 3 Zrotation Xrotation Yrotation
								JOINT lhand
								{
									OFFSET 0 0 0
CHANNELS 3 Zrotation Xrotation Yrotation
									JOINT LFingers
									{
OFFSET 0 -0.450350 0.000000
CHANNELS 3 Zrotation Xrotation Yrotation
										End Site
										{
OFFSET 0 -0.363080 0.000000
										}
									}
								}
								JOINT LThumb
								{
OFFSET 0 0.000000 0.000000
CHANNELS 3 Zrotation Xrotation Yrotation
									End Site
									{
OFFSET 0 -0.368620 0.368620
									}
								}
							}
						}
					}
				}
				JOINT RightCollar
				{
					OFFSET 0 0 0
					CHANNELS 3 Zrotation Yrotation Xrotation
					JOINT RightShoulder
					{
						OFFSET -3.50159 0.80383 -0.71526
CHANNELS 3 Zrotation Xrotation Yrotation
						JOINT RightElbow
						{
OFFSET 0 -5.363940 0.000000
CHANNELS 3 Zrotation Xrotation Yrotation
							JOINT RightWrist
							{
OFFSET 0 -3.580350 0.000000
CHANNELS 3 Zrotation Xrotation Yrotation
								JOINT rhand
								{
									OFFSET 0 0 0
CHANNELS 3 Zrotation Xrotation Yrotation
									JOINT RFingers
									{
OFFSET 0 -0.663750 0.000000
CHANNELS 3 Zrotation Xrotation Yrotation
										End Site
										{
OFFSET 0 -0.535130 0.000000
										}
									}
								}
								JOINT RThumb
								{
OFFSET 0 0.000000 0.000000
CHANNELS 3 Zrotation Xrotation Yrotation
									End Site
									{
OFFSET 0 -0.543300 0.543300
									}
								}
							}
						}
					}
				}
			}
		}
	}
}
MOTION
Frames: 5
Frame Time: 0.008333333333333333
0.873975 17.789391 8.445154 -5.889983 -4.827709 -0.607932 0.000000 0.000000 0.000000 -13.550889 -10.624457 -23.058171 1.538660 7.830333 22.200072 -0.074214 -5.538199 -0.860533 0.044046 -1.353252 -3.721476 0.000000 0.000000 0.000000 32.329308 1.297528 11.208517 -2.953121 -10.616415 30.999242 -0.653186 2.213735 -14.665871 -0.167274 2.623691 -7.233389 5.875633 2.469376 10.348594 1.596149 4.075318 0.115519 -2.218922 1.870921 -5.393375 -1.089604 -2.788353 -17.515010 0.994048 -3.715705 15.597360 0.073411 -1.735411 7.731824 0.000000 0.000000 0.000000 1.735326 5.013022 -17.878489 9.626699 -16.153515 1.369266 26.884605 4.024230 -13.453411 0.000000 0.000000 0.000000 -7.125000 0.000000 0.000000 -0.458537 44.992956 -0.000032 0.000000 0.000000 0.000000 -3.226248 -6.872199 14.669472 -16.917640 -26.748803 -4.050254 -19.461677 -6.797891 -19.157557 0.000000 0.000000 0.000000 7.125000 0.000000 0.000000 5.687900 9.832287 4.656769
0.883505 17.796978 8.610278 -5.385703 -4.848897 -0.860236 0.000000 0.000000 0.000000 -14.025148 -11.134729 -22.690779 1.590741 7.955376 22.578926 -0.086145 -5.477357 0.374947 0.062566 0.624348 1.718789 0.000000 0.000000 0.000000 31.619770 1.174294 10.928292 -3.258516 -11.095845 32.611042 -0.538777 2.445512 -13.214585 -0.193805 2.826254 -7.795891 5.302169 2.486902 10.283555 1.503399 4.016934 0.205843 -1.983133 1.860616 -5.297000 -1.173437 -2.801106 -17.586490 1.098732 -3.736373 15.899369 0.115812 -1.737498 7.848771 0.000000 0.000000 0.000000 1.649940 5.036588 -17.496457 9.514259 -15.976122 1.338214 26.896630 4.184485 -12.999738 0.000000 0.000000 0.000000 -7.125000 0.000000 0.000000 -0.394026 44.492533 -0.004550 0.000000 0.000000 0.000000 -3.160006 -6.875509 14.225407 -16.660308 -26.407242 -3.935331 -19.615408 -6.658685 -19.366258 0.000000 0.000000 0.000000 7.125000 0.000000 0.000000 5.601538 9.594813 4.611986
0.891507 17.803852 8.773370 -4.915356 -4.907902 -1.126631 0.000000 0.000000 0.000000 -14.653008 -11.116636 -22.214538 1.646804 8.087399 22.980256 -0.111184 -6.041049 0.736070 0.045070 1.087459 2.992156 0.000000 0.000000 0.000000 30.947865 1.103449 10.565707 -3.603404 -11.605234 34.359307 -0.417474 2.529380 -11.538697 -0.230346 3.086955 -8.521014 4.752943 2.526936 10.283670 1.406339 3.995890 0.290126 -1.773879 1.866291 -5.239077 -1.237239 -2.821271 -17.678260 1.233583 -3.777791 16.159402 0.162631 -1.745127 7.955975 0.000000 0.000000 0.000000 1.587549 4.978423 -16.976651 9.301190 -15.638585 1.280596 27.051523 4.354236 -12.500240 0.000000 0.000000 0.000000 -7.125000 0.000000 0.000000 -0.195684 43.957703 -0.003406 0.000000 0.000000 0.000000 -3.040938 -6.788053 13.648144 -16.431945 -26.102538 -3.834214 -19.651298 -6.584821 -19.884254 0.000000 0.000000 0.000000 7.125000 0.000000 0.000000 5.612345 9.052046 4.683001
0.900597 17.808961 8.934084 -4.504684 -4.972088 -1.369493 0.000000 0.000000 0.000000 -15.410715 -10.618358 -21.678797 1.711438 8.236783 23.435882 -0.141039 -6.989426 0.240963 0.000247 0.009176 0.025067 0.000000 0.000000 0.000000 30.312186 1.049422 10.063317 -3.982942 -12.133489 36.211723 -0.294251 2.503022 -9.641727 -0.239201 3.139776 -8.668633 4.300196 2.570427 10.341362 1.302315 3.996510 0.332248 -1.632626 1.877020 -5.249400 -1.278149 -2.848657 -17.704007 1.363965 -3.833270 16.312182 0.204386 -1.759485 8.015807 0.000000 0.000000 0.000000 1.552283 4.926416 -16.396337 9.046751 -15.234844 1.212380 27.294286 4.570878 -12.167134 0.000000 0.000000 0.000000 -7.125000 0.000000 0.000000 0.063222 43.617365 0.002141 0.000000 0.000000 0.000000 -2.868280 -6.583478 12.991943 -16.259246 -25.870903 -3.758382 -19.550144 -6.511018 -20.427027 0.000000 0.000000 0.000000 7.125000 0.000000 0.000000 5.713706 8.502194 4.830679
0.916025 17.812364 9.093579 -4.120579 -4.913856 -1.496091 0.000000 0.000000 0.000000 -16.133020 -10.333475 -21.315868 1.790391 8.414807 23.981448 -0.135065 -6.948890 -0.069633 0.001003 -0.187073 -0.514071 0.000000 0.000000 0.000000 29.584739 0.861642 9.264479 -4.387768 -12.656443 38.100030 -0.181266 2.541742 -7.525635 -0.172802 2.671727 -7.366428 3.990280 2.551521 10.326237 1.182447 3.929127 0.295948 -1.576133 1.848812 -5.294700 -1.300534 -2.872631 -17.561452 1.392098 -3.867604 16.314148 0.215125 -1.775367 7.993195 0.000000 0.000000 0.000000 1.501236 5.102549 -15.888962 8.981637 -15.131085 1.195288 27.336939 4.939858 -12.458673 0.000000 0.000000 0.000000 -7.125000 0.000000 0.000000 0.072599 43.946641 0.001839 0.000000 0.000000 0.000000 -2.683374 -6.286344 12.453713 -16.190502 -25.778261 -3.728434 -19.310485 -6.191952 -20.138891 0.000000 0.000000 0.000000 7.125000 0.000000 0.000000 5.848094 8.834192 4.906759
